<svg xmlns="http://www.w3.org/2000/svg" version="1.1" xmlns:xlink="http://www.w3.org/1999/xlink" xmlns:svgjs="http://svgjs.dev/svgjs" width="1000" height="1000" viewBox="0 0 1000 1000"><rect width="1000" height="1000" fill="#ffffff"></rect><g transform="matrix(0.7,0,0,0.7,149.57575757575756,282.1265587044535)"><svg viewBox="0 0 396 247" data-background-color="#ffffff" preserveAspectRatio="xMidYMid meet" height="623" width="1000" xmlns="http://www.w3.org/2000/svg" xmlns:xlink="http://www.w3.org/1999/xlink"><g id="tight-bounds" transform="matrix(1,0,0,1,0.2400000000000091,-0.09999999999999432)"><svg viewBox="0 0 395.52 247.2" height="247.2" width="395.52"><g><svg></svg></g><g><svg viewBox="0 0 395.52 247.2" height="247.2" width="395.52"><g transform="matrix(1,0,0,1,75.54432,65.98991515151516)"><svg viewBox="0 0 244.43135999999998 115.22016969696968" height="115.22016969696968" width="244.43135999999998"><g><svg viewBox="0 0 244.43135999999998 115.22016969696968" height="115.22016969696968" width="244.43135999999998"><g><svg viewBox="0 0 244.43135999999998 115.22016969696968" height="115.22016969696968" width="244.43135999999998"><g><svg viewBox="0 0 244.43135999999998 115.22016969696968" height="115.22016969696968" width="244.43135999999998"><g><svg viewBox="0 0 244.43135999999998 115.22016969696968" height="115.22016969696968" width="244.43135999999998"><g><svg viewBox="0 0 244.43135999999998 115.22016969696968" height="115.22016969696968" width="244.43135999999998"><g transform="matrix(1,0,0,1,0,0)"><svg width="244.43135999999998" viewBox="3.049999952316284 -35 74.25 35" height="115.22016969696968" data-palette-color="#31c48d"><path d="M7.55 0L3.05 0 3.05-24.5 6.55-24.5 7.45-19.8 5.75-20.6Q8.05-23.08 10.23-24.04 12.4-25 14.8-25L14.8-25Q16.6-25 18.26-24.41 19.93-23.83 21.26-22.36 22.6-20.9 23.4-18.3L23.4-18.3 22.15-18.85Q23.25-21.7 25.53-23.35 27.8-25 31.65-25L31.65-25Q34.73-25 36.83-23.86 38.93-22.73 39.99-20.39 41.05-18.05 41.05-14.45L41.05-14.45 41.05 0 36.55 0 36.55-14.4Q36.55-17.85 35.2-19.43 33.85-21 30.8-21L30.8-21Q28.65-21 27.35-20.34 26.05-19.68 25.39-18.63 24.73-17.57 24.51-16.4 24.3-15.23 24.3-14.2L24.3-14.2 24.3 0 19.8 0 19.8-13.5Q19.8-16.5 19.07-18.13 18.35-19.75 17.05-20.38 15.75-21 14.05-21L14.05-21Q11.58-21 9.63-19.91 7.68-18.82 7-16.45L7-16.45 7.55-18.9 7.55 0ZM59.9 0L46.95 0 46.95-35 59.9-35Q64.97-35 68.9-32.93 72.82-30.85 75.06-26.94 77.3-23.03 77.3-17.5L77.3-17.5Q77.3-11.98 75.06-8.06 72.82-4.15 68.9-2.08 64.97 0 59.9 0L59.9 0ZM51.7-30.7L51.7-4.3 59.9-4.3Q63.9-4.3 66.61-5.96 69.32-7.63 70.71-10.6 72.1-13.58 72.1-17.5L72.1-17.5Q72.1-21.43 70.71-24.4 69.32-27.38 66.61-29.04 63.9-30.7 59.9-30.7L59.9-30.7 51.7-30.7Z" opacity="1" transform="matrix(1,0,0,1,0,0)" fill="#31c48d" class="undefined-text-0" data-fill-palette-color="primary" id="text-0"></path></svg></g></svg></g></svg></g></svg></g><g></g></svg></g></svg></g></svg></g><g><path d="M144.063 38.789A122.216 122.216 0 0 1 251.457 38.789L241.066 38.789A111.825 111.825 0 0 0 154.454 38.789L144.063 38.789M144.063 208.411A122.216 122.216 0 0 0 251.457 208.411L241.066 208.411A111.825 111.825 0 0 1 154.454 208.411L144.063 208.411" fill="#31c48d" stroke="transparent" data-fill-palette-color="tertiary"></path></g></svg></g><defs></defs></svg><rect width="395.52" height="247.2" fill="none" stroke="none" visibility="hidden"></rect></g></svg></g></svg>