<svg xmlns="http://www.w3.org/2000/svg" version="1.1" xmlns:xlink="http://www.w3.org/1999/xlink" xmlns:svgjs="http://svgjs.dev/svgjs" width="1000" height="1000" viewBox="0 0 1000 1000"><rect width="1000" height="1000" fill="#ffffff"></rect><g transform="matrix(0.7,0,0,0.7,149.57575757575756,282.1265587044535)"><svg viewBox="0 0 396 247" data-background-color="#ffffff" preserveAspectRatio="xMidYMid meet" height="623" width="1000" xmlns="http://www.w3.org/2000/svg" xmlns:xlink="http://www.w3.org/1999/xlink"><g id="tight-bounds" transform="matrix(1,0,0,1,0.2400000000000091,-0.09999999999999432)"><svg viewBox="0 0 395.52 247.2" height="247.2" width="395.52"><g><svg></svg></g><g><svg viewBox="0 0 395.52 247.2" height="247.2" width="395.52"><g transform="matrix(1,0,0,1,75.54432,102.74608680605624)"><svg viewBox="0 0 244.43135999999998 41.70782638788752" height="41.70782638788752" width="244.43135999999998"><g><svg viewBox="0 0 244.43135999999998 41.70782638788752" height="41.70782638788752" width="244.43135999999998"><g><svg viewBox="0 0 244.43135999999998 41.70782638788752" height="41.70782638788752" width="244.43135999999998"><g><svg viewBox="0 0 244.43135999999998 41.70782638788752" height="41.70782638788752" width="244.43135999999998"><g><svg viewBox="0 0 244.43135999999998 41.70782638788752" height="41.70782638788752" width="244.43135999999998"><g><svg viewBox="0 0 244.43135999999998 41.70782638788752" height="41.70782638788752" width="244.43135999999998"><g transform="matrix(1,0,0,1,0,0)"><svg width="244.43135999999998" viewBox="3.05 -35 208.03 35.5" height="41.70782638788752" data-palette-color="#31c48d"><path d="M7.55 0L3.05 0 3.05-24.5 6.55-24.5 7.45-19.8 5.75-20.6Q8.05-23.08 10.23-24.04 12.4-25 14.8-25L14.8-25Q16.6-25 18.26-24.41 19.93-23.83 21.26-22.36 22.6-20.9 23.4-18.3L23.4-18.3 22.15-18.85Q23.25-21.7 25.53-23.35 27.8-25 31.65-25L31.65-25Q34.73-25 36.83-23.86 38.93-22.73 39.99-20.39 41.05-18.05 41.05-14.45L41.05-14.45 41.05 0 36.55 0 36.55-14.4Q36.55-17.85 35.2-19.43 33.85-21 30.8-21L30.8-21Q28.65-21 27.35-20.34 26.05-19.68 25.39-18.63 24.73-17.57 24.51-16.4 24.3-15.23 24.3-14.2L24.3-14.2 24.3 0 19.8 0 19.8-13.5Q19.8-16.5 19.07-18.13 18.35-19.75 17.05-20.38 15.75-21 14.05-21L14.05-21Q11.58-21 9.63-19.91 7.68-18.82 7-16.45L7-16.45 7.55-18.9 7.55 0ZM52.6 0.5L52.6 0.5Q50.32 0.5 48.62-0.43 46.92-1.35 45.99-2.95 45.05-4.55 45.05-6.6L45.05-6.6Q45.05-8.68 45.96-10.16 46.87-11.65 48.41-12.64 49.95-13.63 51.85-14.21 53.75-14.8 55.79-15.06 57.82-15.33 59.7-15.35L59.7-15.35Q59.7-18.85 58.32-19.93 56.95-21 54.35-21L54.35-21Q52.97-21 51.41-20.58 49.85-20.15 47.9-18.8L47.9-18.8 47.25-22.45Q48.72-23.58 50.92-24.29 53.12-25 55.55-25L55.55-25Q58.65-25 60.55-23.91 62.45-22.83 63.32-20.25 64.2-17.68 64.2-13.25L64.2-13.25 64.2-8.25Q64.2-6.5 64.36-5.36 64.52-4.23 65.11-3.66 65.7-3.1 67-3.1L67-3.1 67.45-3.1 66.75 0.5 66.4 0.5Q64.22 0.5 63.04 0.08 61.85-0.35 61.22-1.15 60.6-1.95 60.1-3.1L60.1-3.1Q58.72-1.5 56.85-0.5 54.97 0.5 52.6 0.5ZM53.45-3.1L53.45-3.1Q55.25-3.1 56.94-4 58.62-4.9 59.7-6.4L59.7-6.4 59.7-12.25Q56.12-12.13 53.91-11.55 51.7-10.98 50.67-9.83 49.65-8.68 49.65-6.85L49.65-6.85Q49.65-4.88 50.71-3.99 51.77-3.1 53.45-3.1ZM82.14 0.5L82.14 0.5Q78 0.5 75.18-1.19 72.37-2.88 70.93-5.74 69.5-8.6 69.5-12.1L69.5-12.1Q69.5-15.75 70.88-18.68 72.27-21.6 75.14-23.3 78.02-25 82.5-25L82.5-25Q84.42-25 86.13-24.61 87.84-24.23 89.19-23.55L89.19-23.55 88.5-19.6Q87.12-20.25 85.58-20.63 84.05-21 82.39-21L82.39-21Q78.34-21 76.22-18.7 74.09-16.4 74.09-12.3L74.09-12.3Q74.09-8.3 76.12-5.88 78.14-3.45 82.3-3.45L82.3-3.45Q84-3.45 85.56-3.85 87.12-4.25 88.55-4.95L88.55-4.95 89.14-1.35Q88.14-0.65 86.22-0.08 84.3 0.5 82.14 0.5ZM98.09 0L93.59 0 93.59-24.5 98.09-24.5 98.09 0ZM98.09-30L93.59-30 93.59-35 98.09-35 98.09-30ZM117.39 0L104.44 0 104.44-35 117.39-35Q122.47-35 126.39-32.93 130.31-30.85 132.55-26.94 134.79-23.03 134.79-17.5L134.79-17.5Q134.79-11.98 132.55-8.06 130.31-4.15 126.39-2.08 122.47 0 117.39 0L117.39 0ZM109.19-30.7L109.19-4.3 117.39-4.3Q121.39-4.3 124.1-5.96 126.82-7.63 128.2-10.6 129.59-13.58 129.59-17.5L129.59-17.5Q129.59-21.43 128.2-24.4 126.82-27.38 124.1-29.04 121.39-30.7 117.39-30.7L117.39-30.7 109.19-30.7ZM144.29 0L139.49 0 139.49-24.5 143.19-24.5 143.74-20.45Q145.61-22.78 147.33-23.89 149.04-25 150.99-25L150.99-25Q151.61-25 152.14-24.85L152.14-24.85 151.69-19.9Q151.36-19.98 151-20.01 150.64-20.05 150.19-20.05L150.19-20.05Q148.24-20.05 146.6-19.19 144.96-18.32 144.29-17.3L144.29-17.3 144.29 0ZM159.79 0L155.29 0 155.29-24.5 159.79-24.5 159.79 0ZM159.79-30L155.29-30 155.29-35 159.79-35 159.79-30ZM177.68 0L172.63 0 163.28-24.5 168.28-24.5 175.13-4.95 181.93-24.5 186.98-24.5 177.68 0ZM201.78 0.5L201.78 0.5Q197.46 0.5 194.51-1.28 191.56-3.05 190.04-5.99 188.53-8.93 188.53-12.45L188.53-12.45Q188.53-15.88 189.94-18.73 191.36-21.58 194.04-23.29 196.73-25 200.53-25L200.53-25Q203.58-25 205.97-23.79 208.36-22.58 209.72-20.26 211.08-17.95 211.08-14.65L211.08-14.65Q211.08-14.13 211.04-13.51 211.01-12.9 210.88-12.25L210.88-12.25 193.13-12.25Q193.46-8.85 194.76-6.95 196.06-5.05 198.03-4.28 200.01-3.5 202.33-3.5L202.33-3.5Q204.03-3.5 205.88-3.85 207.73-4.2 209.38-4.95L209.38-4.95 209.98-1.4Q208.56-0.78 206.51-0.14 204.46 0.5 201.78 0.5ZM193.53-15.35L193.53-15.35 206.43-15.35Q206.43-17.07 205.78-18.35 205.13-19.63 203.81-20.31 202.48-21 200.43-21L200.43-21Q197.43-21 195.82-19.51 194.21-18.03 193.53-15.35Z" opacity="1" transform="matrix(1,0,0,1,0,0)" fill="#000000" class="undefined-text-0" data-fill-palette-color="primary" id="text-0"></path></svg></g></svg></g></svg></g></svg></g><g></g></svg></g></svg></g></svg></g><g><path d="M115.387 92.9A122.216 122.216 0 0 1 280.133 92.9L276.372 92.9A118.454 118.454 0 0 0 119.148 92.9L115.387 92.9M115.387 154.3A122.216 122.216 0 0 0 280.133 154.3L276.372 154.3A118.454 118.454 0 0 1 119.148 154.3L115.387 154.3" fill="#31c48d" stroke="transparent" data-fill-palette-color="tertiary"></path></g></svg></g><defs></defs></svg><rect width="395.52" height="247.2" fill="none" stroke="none" visibility="hidden"></rect></g></svg></g></svg>